<?xml version="1.0" encoding="UTF-8" standalone="no"?>
<svg width="28px" height="14px" viewBox="0 0 28 14" version="1.1" xmlns="http://www.w3.org/2000/svg">
    <g id="Page-2-Copy" stroke="none" stroke-width="1" fill="none" fill-rule="evenodd">
        <g id="3" stroke="#979797" transform="translate(0.000000, -8.000000)" fill="#fff">
            <path d="M6.14213562,21.5269119 L6.14213562,16.1421356 C6.14213562,15.5898509 5.69442037,15.1421356 5.14213562,15.1421356 C4.58985087,15.1421356 4.14213562,15.5898509 4.14213562,16.1421356 L4.14213562,24.1421356 C4.14213562,24.6944204 4.58985087,25.1421356 5.14213562,25.1421356 L13.1421356,25.1421356 C13.6944204,25.1421356 14.1421356,24.6944204 14.1421356,24.1421356 C14.1421356,23.5898509 13.6944204,23.1421356 13.1421356,23.1421356 L7.35533906,23.1421356 L23.2316855,7.26578916 C23.6234984,6.87397628 23.6272657,6.24248936 23.2340187,5.8492424 C22.8434944,5.45871811 22.2078097,5.46123784 21.817472,5.8515756 L6.14213562,21.5269119 Z"
                  id="Rectangle-348" stroke="none"
                  transform="translate(14.142136, 15.142136) rotate(-315.000000) translate(-14.142136, -15.142136) "/>
        </g>
    </g>
</svg>